<svg width="64" height="64" viewBox="0 0 64 64" fill="none" xmlns="http://www.w3.org/2000/svg">
  <rect width="64" height="64" rx="18" fill="url(#bg)" />
  <rect x="1" y="1" width="62" height="62" rx="17" stroke="rgba(255,255,255,0.10)" />
  <circle cx="18" cy="18" r="9" fill="url(#glowA)" />
  <circle cx="46" cy="46" r="9" fill="url(#glowB)" />
  <g filter="url(#shadow)">
    <g transform="translate(14 14) scale(1.5)">
      <path d="M15.707 21.293a1 1 0 0 1-1.414 0l-1.586-1.586a1 1 0 0 1 0-1.414l5.586-5.586a1 1 0 0 1 1.414 0l1.586 1.586a1 1 0 0 1 0 1.414z" stroke="url(#stroke)" stroke-width="2" stroke-linecap="round" stroke-linejoin="round"/>
      <path d="m18 13-1.375-6.874a1 1 0 0 0-.746-.776L3.235 2.028a1 1 0 0 0-1.207 1.207L5.35 15.879a1 1 0 0 0 .776.746L13 18" stroke="url(#stroke)" stroke-width="2" stroke-linecap="round" stroke-linejoin="round"/>
      <path d="m2.3 2.3 7.286 7.286" stroke="url(#stroke)" stroke-width="2" stroke-linecap="round" stroke-linejoin="round"/>
      <circle cx="11" cy="11" r="2" stroke="url(#stroke)" stroke-width="2"/>
    </g>
  </g>
  <defs>
    <linearGradient id="bg" x1="9" y1="8" x2="56" y2="60" gradientUnits="userSpaceOnUse">
      <stop stop-color="#101827" />
      <stop offset="0.52" stop-color="#0B1321" />
      <stop offset="1" stop-color="#050816" />
    </linearGradient>
    <linearGradient id="stroke" x1="17" y1="16" x2="47" y2="46" gradientUnits="userSpaceOnUse">
      <stop stop-color="#F2FFF8" />
      <stop offset="0.52" stop-color="#8DF6C8" />
      <stop offset="1" stop-color="#6AD7FF" />
    </linearGradient>
    <radialGradient id="glowA" cx="0" cy="0" r="1" gradientUnits="userSpaceOnUse" gradientTransform="translate(18 18) rotate(90) scale(9)">
      <stop stop-color="#8DF6C8" stop-opacity="0.22" />
      <stop offset="1" stop-color="#8DF6C8" stop-opacity="0" />
    </radialGradient>
    <radialGradient id="glowB" cx="0" cy="0" r="1" gradientUnits="userSpaceOnUse" gradientTransform="translate(46 46) rotate(90) scale(9)">
      <stop stop-color="#6AD7FF" stop-opacity="0.18" />
      <stop offset="1" stop-color="#6AD7FF" stop-opacity="0" />
    </radialGradient>
    <filter id="shadow" x="10" y="10" width="44" height="44" filterUnits="userSpaceOnUse" color-interpolation-filters="sRGB">
      <feFlood flood-opacity="0" result="BackgroundImageFix"/>
      <feColorMatrix in="SourceAlpha" type="matrix" values="0 0 0 0 0 0 0 0 0 0 0 0 0 0 0 0 0 0 127 0" result="hardAlpha"/>
      <feOffset dy="2"/>
      <feGaussianBlur stdDeviation="3"/>
      <feComposite in2="hardAlpha" operator="out"/>
      <feColorMatrix type="matrix" values="0 0 0 0 0.054902 0 0 0 0 0.419608 0 0 0 0 0.54902 0 0 0 0.22 0"/>
      <feBlend mode="normal" in2="BackgroundImageFix" result="effect1_dropShadow_1_1"/>
      <feBlend mode="normal" in="SourceGraphic" in2="effect1_dropShadow_1_1" result="shape"/>
    </filter>
  </defs>
</svg>
